<svg width="32" height="32" viewBox="0 0 32 32" fill="none" xmlns="http://www.w3.org/2000/svg">
<path fill-rule="evenodd" clip-rule="evenodd" d="M16 32C24.8366 32 32 24.8366 32 16C32 7.16344 24.8366 0 16 0C7.16344 0 0 7.16344 0 16C0 24.8366 7.16344 32 16 32Z" fill="#919EAB"/>
<mask id="mask0" mask-type="alpha" maskUnits="userSpaceOnUse" x="0" y="0" width="32" height="32">
<path fill-rule="evenodd" clip-rule="evenodd" d="M16 32C24.8366 32 32 24.8366 32 16C32 7.16344 24.8366 0 16 0C7.16344 0 0 7.16344 0 16C0 24.8366 7.16344 32 16 32Z" fill="white"/>
</mask>
<g mask="url(#mask0)">
<rect width="32" height="32" fill="#007ACE"/>
<path d="M16 9.9C17.16 9.9 18.1 10.84 18.1 12C18.1 13.16 17.16 14.1 16 14.1C14.84 14.1 13.9 13.16 13.9 12C13.9 10.84 14.84 9.9 16 9.9ZM16 18.9C18.97 18.9 22.1 20.36 22.1 21V22.1H9.9V21C9.9 20.36 13.03 18.9 16 18.9ZM16 8C13.79 8 12 9.79 12 12C12 14.21 13.79 16 16 16C18.21 16 20 14.21 20 12C20 9.79 18.21 8 16 8ZM16 17C13.33 17 8 18.34 8 21V24H24V21C24 18.34 18.67 17 16 17Z" fill="white"/>
</g>
</svg>
