<svg width="17" height="21" viewBox="0 0 17 21" fill="none" xmlns="http://www.w3.org/2000/svg">
<path d="M8.49528 5.72727C9.53831 5.72727 10.3831 4.87295 10.3831 3.81818C10.3831 3.46023 10.284 3.12136 10.1141 2.835L8.49528 0L6.87646 2.835C6.70655 3.12136 6.60744 3.46023 6.60744 3.81818C6.60744 4.87295 7.45225 5.72727 8.49528 5.72727ZM12.8326 15.2584L11.8179 14.2323L10.7984 15.2584C9.56663 16.5041 7.41449 16.5041 6.18268 15.2584L5.16796 14.2323L4.14853 15.2584C3.5397 15.8836 2.72321 16.2273 1.85008 16.2273C1.16574 16.2273 0.528595 16.0077 0 15.6402V20.0455C0 20.5705 0.424764 21 0.94392 21H16.0466C16.5658 21 16.9906 20.5705 16.9906 20.0455V15.6402C16.462 16.0077 15.8295 16.2273 15.1405 16.2273C14.2674 16.2273 13.4509 15.8836 12.8326 15.2584ZM14.1588 8.59091H9.4392V6.68182H7.55136V8.59091H2.83176C1.26957 8.59091 0 9.87477 0 11.4545V12.9245C0 13.9555 0.83065 14.7955 1.85008 14.7955C2.34564 14.7955 2.80816 14.5998 3.15741 14.2466L5.1774 12.2086L7.19267 14.2418C7.89117 14.9482 9.10883 14.9482 9.80733 14.2418L11.8273 12.2086L13.8426 14.2418C14.1918 14.595 14.6544 14.7907 15.1499 14.7907C16.1693 14.7907 17 13.9507 17 12.9198V11.4545C16.9906 9.87477 15.721 8.59091 14.1588 8.59091Z" fill="#54ABF2" fill-opacity="0.85"/>
</svg>
