<svg width="234" height="177" viewBox="0 0 234 177" fill="none" xmlns="http://www.w3.org/2000/svg">
<path d="M33.0269 73.0445C33.8295 78.0463 27.4074 83.2487 18.6891 84.6477C16.5375 84.9994 14.3521 85.0844 12.1905 84.9003C10.5723 85.3035 8.98726 85.822 7.44958 86.4512C7.44958 86.4512 8.98587 84.3821 8.31943 84.2045C4.54288 83.1038 1.90677 80.9457 1.45521 78.1315C0.65262 73.1297 7.07466 67.9273 15.793 66.5284C24.5114 65.1294 32.2226 68.0324 33.0269 73.0445Z" fill="#B4E1FA"/>
<path d="M11.5708 77.9222C12.313 77.8031 12.8254 77.1502 12.7152 76.4638C12.6051 75.7775 11.9142 75.3176 11.172 75.4367C10.4298 75.5558 9.91741 76.2088 10.0275 76.8951C10.1377 77.5815 10.8286 78.0413 11.5708 77.9222Z" fill="white"/>
<path d="M17.6333 76.9457C18.3755 76.8266 18.8879 76.1736 18.7777 75.4873C18.6676 74.8009 17.9767 74.3411 17.2345 74.4601C16.4923 74.5792 15.9799 75.2322 16.09 75.9185C16.2002 76.6049 16.8911 77.0648 17.6333 76.9457Z" fill="white"/>
<path d="M23.6997 75.973C24.4419 75.8539 24.9543 75.201 24.8441 74.5146C24.734 73.8283 24.0431 73.3684 23.3009 73.4875C22.5587 73.6066 22.0463 74.2595 22.1564 74.9459C22.2666 75.6322 22.9575 76.0921 23.6997 75.973Z" fill="white"/>
<path d="M185.395 176.189C179.077 177.768 166.359 176.657 159.86 176.069C148.148 175.025 136.42 173.955 124.691 172.911C119.267 172.603 113.817 173.019 108.558 174.142C105.451 174.725 102.306 175.172 99.1395 175.48C93.9012 175.926 88.6366 176.136 83.3697 176.109H82.5284C77.0363 176.046 71.5634 175.567 66.1813 174.677C57.6762 173.332 49.6535 170.452 42.7081 166.249C38.4295 163.72 34.9571 160.4 32.5798 156.563C27.5321 147.867 30.6663 138.249 35.351 130.115C39.343 123.158 45.7103 117.539 43.7143 108.95C42.0648 102.154 36.1923 95.1575 39.8214 89.0437C42.2297 85.0302 47.8217 83.6924 52.8364 83.0904C63.8389 81.8997 75.1384 82.7158 85.8276 80.1739C99.5849 76.9097 103.362 69.1503 109.961 59.2371C115.981 50.14 126.077 42.0194 136.914 38.1397C152.734 32.454 171.176 35.1832 187.044 40.8154C208.819 48.4543 220.217 73.6722 213.635 93.6458C210.336 103.853 208.835 114.583 215.483 125.887C225.793 143.239 212.745 169.406 185.395 176.189Z" fill="#EBF5FA"/>
<path d="M132.022 168.982C161.478 175.273 193.828 184.604 207.636 159.385C215.855 144.497 206.814 131.715 203.724 121.665C195.965 99.006 194.42 71.3755 166.508 62.5785C133.945 51.2624 124.641 80.1858 101.381 91.4886C85.8803 97.7798 59.4481 74.9476 45.4923 90.0358C36.7144 101.539 54.5496 108.363 55.3551 118.706C56.8016 137.22 34.1337 139.166 43.1088 157.599C49.3059 165.143 65.711 164.41 76.56 166.93C81.7051 169.022 84.2365 172.021 87.4091 174.993C91.8966 174.993 87.557 175.447 91.9295 175.1L95.6774 174.887L96.4171 174.807C104.554 166.05 118.017 165.73 132.022 168.982Z" fill="#B4E1FA"/>
<path d="M131.97 159.78C151.726 163.348 168.452 176.436 188.207 166.916C194.282 162.163 203.403 156.212 200.373 149.076C197.328 145.508 188.207 146.693 188.207 145.508C185.162 131.235 186.693 115.777 176.042 102.64C168.436 93.1205 150.259 84.7991 139.56 93.1205C121.319 106.208 100.049 94.3057 84.7733 105.01C74.1382 113.332 81.7278 126.444 71.0927 138.308C68.0472 140.691 68.0472 146.63 71.0927 150.198C82.3723 156.805 96.214 162.403 94.5704 174.532L97.4387 174.38L98.1638 174.305C98.4055 174.053 98.6633 173.826 98.9211 173.586C106.607 165.164 117.323 157.864 131.97 159.78Z" fill="#006FBB" fill-opacity="0.62"/>
<path d="M75.0038 16.2932C76.779 16.9369 78.3817 15.8944 78.5835 13.9649C78.7853 12.0353 77.5098 9.94929 75.7346 9.30561C73.9594 8.66194 72.3567 9.70435 72.1549 11.6339C71.9531 13.5635 73.2286 15.6495 75.0038 16.2932Z" fill="#B4E1FA" fill-opacity="0.78"/>
<path d="M85.69 31.0542C86.8645 31.4801 87.9248 30.7904 88.0583 29.5138C88.1918 28.2372 87.348 26.8571 86.1735 26.4312C84.999 26.0054 83.9386 26.695 83.8051 27.9716C83.6716 29.2482 84.5155 30.6284 85.69 31.0542Z" fill="#B4E1FA" fill-opacity="0.78"/>
<path d="M100.82 30.3223C101.609 30.6087 102.322 30.145 102.412 29.2866C102.502 28.4281 101.935 27.5001 101.145 27.2138C100.355 26.9274 99.6421 27.3912 99.5523 28.2496C99.4625 29.108 100.03 30.036 100.82 30.3223Z" fill="#B4E1FA" fill-opacity="0.78"/>
<path d="M76.0895 12.2716L86.2937 28.4711L85.8424 28.2002L100.984 28.7748L86.029 29.2723L85.7785 29.2933L85.5777 29.0014L74.6274 13.3488L76.0895 12.2716Z" fill="#B4E1FA" fill-opacity="0.78"/>
<path d="M81.0359 60.6415C81.0305 60.7002 81.0305 60.7593 81.0359 60.818C81.0541 60.9652 81.1338 61.1006 81.2588 61.1963C81.3142 61.2331 81.3776 61.2588 81.4448 61.2719C81.5121 61.2849 81.5816 61.2849 81.6488 61.2719C81.8202 61.2341 81.9802 61.1625 82.1174 61.0623C82.2547 60.962 82.3658 60.8356 82.4428 60.692C82.6745 60.3014 82.8167 59.8726 82.8607 59.4311C82.9459 58.9509 82.9459 58.4614 82.8607 57.9812C82.7601 57.5112 82.5192 57.0752 82.1642 56.7204C81.7895 56.3578 81.3049 56.1034 80.7712 55.9891C80.1707 55.864 79.5468 55.864 78.9463 55.9891C77.9379 56.1444 76.9837 56.5115 76.1603 57.0608C75.3979 57.5692 74.8129 58.265 74.4747 59.0655C74.1278 59.9208 74.0554 60.8474 74.2657 61.7384C74.3794 62.2892 74.6268 62.8103 74.9901 63.264C75.3393 63.7101 75.8228 64.0559 76.3831 64.2601C77.078 64.4772 77.8265 64.5121 78.5423 64.3609C79.0638 64.2833 79.5703 64.139 80.0468 63.9323C80.4557 63.7316 80.8388 63.4906 81.1891 63.2136C81.2517 63.1594 81.3283 63.1204 81.412 63.1001C81.5 63.0877 81.5901 63.1021 81.6682 63.1408C81.7463 63.1796 81.808 63.2406 81.8438 63.3144C81.8536 63.356 81.8536 63.399 81.8438 63.4405C81.8438 63.6002 81.7185 63.7852 81.4677 63.9953C81.064 64.2823 80.6354 64.5395 80.1861 64.7644C79.7084 64.9846 79.1964 65.1377 78.6677 65.2183C77.7446 65.4163 76.7783 65.3726 75.8816 65.0922C75.1443 64.8459 74.5044 64.4071 74.0428 63.8314C73.5863 63.2526 73.2771 62.5895 73.1374 61.8897C72.8906 60.8429 72.9776 59.7541 73.3881 58.7503C73.7872 57.8036 74.4727 56.9778 75.3662 56.3673C76.3139 55.7231 77.4166 55.291 78.5841 55.1065C79.3901 54.9456 80.2275 54.9673 81.0219 55.1695C81.6973 55.3475 82.3018 55.6977 82.7632 56.1782C83.2146 56.6619 83.5172 57.2446 83.6408 57.8677C83.7812 58.4917 83.7812 59.1349 83.6408 59.7589C83.5043 60.3607 83.2078 60.9232 82.7772 61.398C82.3626 61.8512 81.7861 62.159 81.1473 62.268C80.8232 62.3274 80.4866 62.2921 80.1861 62.1671C79.8977 62.0561 79.668 61.8482 79.5453 61.5871C79.4337 61.9178 79.2195 62.2125 78.928 62.436C78.6366 62.6596 78.2803 62.8026 77.9015 62.8479C77.5853 62.9042 77.2581 62.8824 76.9543 62.7849C76.6315 62.6806 76.347 62.4973 76.1324 62.2554C75.8932 61.9852 75.7349 61.6639 75.6727 61.3224C75.5773 60.8095 75.6107 60.2838 75.7702 59.7842C75.9226 59.2481 76.2032 58.7488 76.5921 58.3216C76.9386 57.9214 77.4334 57.6482 77.9851 57.5525C78.2568 57.5045 78.538 57.5308 78.7931 57.6281C79.0575 57.7285 79.2813 57.9002 79.4339 58.1199V57.8047C79.4337 57.6759 79.4829 57.5511 79.5732 57.4516C79.6878 57.3332 79.8464 57.2569 80.019 57.2373C80.4647 57.1616 80.7201 57.2835 80.7851 57.6029C80.79 57.6617 80.79 57.7207 80.7851 57.7794L81.0359 60.6415ZM79.6428 59.1916C79.6301 59.0665 79.5858 58.9457 79.5134 58.8386C79.4409 58.7315 79.3422 58.6409 79.2249 58.5738C78.9923 58.4678 78.7254 58.4409 78.4727 58.4981C78.3122 58.5268 78.16 58.5854 78.0257 58.67C77.8915 58.7546 77.778 58.8635 77.6926 58.9898C77.4804 59.2825 77.3424 59.614 77.2886 59.9607C77.2236 60.3028 77.2236 60.6524 77.2886 60.9945C77.3197 61.2307 77.4493 61.4471 77.6508 61.5997C77.7469 61.6607 77.8562 61.7025 77.9715 61.722C78.0869 61.7416 78.2055 61.7386 78.3195 61.7132C78.5822 61.6709 78.8221 61.5512 79.002 61.3728C79.1871 61.1929 79.3336 60.9834 79.4339 60.755C79.5265 60.5535 79.5875 60.3413 79.615 60.1246C79.678 59.8168 79.6874 59.502 79.6428 59.1916Z" fill="#B4E1FA" fill-opacity="0.91"/>
<path d="M45.9517 46.0003C44.6361 46.0121 43.3785 46.505 42.4516 47.3722C41.5247 48.2393 41.0031 49.4108 41 50.6327C41 53.6947 46 59 46 59C46 59 51 53.6947 51 50.6327C51 50.0196 50.8691 49.4126 50.6146 48.8469C50.3602 48.2812 49.9874 47.768 49.5178 47.3371C49.0482 46.9062 48.4912 46.5662 47.879 46.3367C47.2669 46.1073 46.6118 45.9929 45.9517 46.0003ZM45.9517 53.2012C45.4071 53.2012 44.8747 53.0512 44.4219 52.7702C43.969 52.4892 43.6161 52.0898 43.4077 51.6225C43.1993 51.1552 43.1447 50.641 43.251 50.145C43.3572 49.6489 43.6195 49.1932 44.0046 48.8356C44.3897 48.4779 44.8803 48.2344 45.4145 48.1357C45.9486 48.037 46.5023 48.0877 47.0055 48.2812C47.5086 48.4748 47.9387 48.8026 48.2413 49.2231C48.5438 49.6437 48.7053 50.1381 48.7053 50.6439C48.7053 50.9797 48.6341 51.3123 48.4957 51.6225C48.3573 51.9328 48.1545 52.2147 47.8988 52.4522C47.6431 52.6896 47.3395 52.878 47.0055 53.0065C46.6714 53.135 46.3133 53.2012 45.9517 53.2012Z" fill="#B4E1FA"/>
<path d="M32.3028 119.539L29.5847 118.627L30.5062 115.88C30.637 115.49 30.607 115.064 30.4228 114.695C30.2386 114.327 29.9152 114.046 29.5239 113.914C29.1325 113.783 28.7053 113.812 28.3361 113.995C27.9669 114.178 27.6859 114.5 27.5551 114.89L26.6336 117.638L23.8767 116.713C23.4854 116.582 23.0581 116.611 22.6889 116.794C22.3197 116.977 22.0388 117.299 21.9079 117.689C21.7771 118.079 21.8071 118.505 21.9914 118.873C22.1756 119.242 22.4989 119.523 22.8903 119.654L25.6472 120.579L24.7256 123.326C24.5948 123.716 24.6248 124.142 24.8091 124.511C24.9933 124.88 25.3166 125.16 25.7079 125.292C26.0993 125.423 26.5266 125.394 26.8958 125.211C27.265 125.028 27.5459 124.706 27.6767 124.316L28.5982 121.568L31.3163 122.48C31.7077 122.611 32.1349 122.582 32.5041 122.399C32.8734 122.216 33.1542 121.895 33.2851 121.505C33.4159 121.115 33.3859 120.688 33.2017 120.32C33.0174 119.951 32.6941 119.67 32.3028 119.539Z" fill="#B4E1FA"/>
<path d="M231.375 99.1905H227.943V95.8095C227.943 95.3296 227.75 94.8694 227.405 94.53C227.061 94.1907 226.593 94 226.106 94C225.619 94 225.152 94.1907 224.807 94.53C224.463 94.8694 224.269 95.3296 224.269 95.8095V99.1905H220.837C220.35 99.1905 219.883 99.3811 219.538 99.7205C219.194 100.06 219 100.52 219 101C219 101.48 219.194 101.94 219.538 102.28C219.883 102.619 220.35 102.81 220.837 102.81H224.269V106.19C224.269 106.67 224.463 107.131 224.807 107.47C225.152 107.809 225.619 108 226.106 108C226.593 108 227.061 107.809 227.405 107.47C227.75 107.131 227.943 106.67 227.943 106.19V102.81H231.375C231.863 102.81 232.33 102.619 232.674 102.28C233.019 101.94 233.212 101.48 233.212 101C233.212 100.52 233.019 100.06 232.674 99.7205C232.33 99.3811 231.863 99.1905 231.375 99.1905Z" fill="#B4E1FA"/>
<path d="M195.988 74H70.0116C68.3483 74 67 75.1595 67 76.5899V143.41C67 144.84 68.3483 146 70.0116 146H195.988C197.652 146 199 144.84 199 143.41V76.5899C199 75.1595 197.652 74 195.988 74Z" fill="#F9FBFC"/>
<path d="M173.547 98H124.463C123.014 98 121.625 97.4732 120.6 96.5355C119.576 95.5978 119 94.3261 119 93C119 91.6739 119.576 90.4021 120.6 89.4645C121.625 88.5268 123.014 88 124.463 88H173.537C174.986 88 176.375 88.5268 177.4 89.4645C178.424 90.4021 179 91.6739 179 93C179 94.3244 178.426 95.5946 177.404 96.532C176.381 97.4694 174.995 97.9974 173.547 98Z" fill="#B4E1FA"/>
<path d="M155.365 110H122.642C121.676 110 120.75 109.579 120.067 108.828C119.384 108.078 119 107.061 119 106C119 104.939 119.384 103.922 120.067 103.172C120.75 102.421 121.676 102 122.642 102H155.358C156.324 102 157.25 102.421 157.933 103.172C158.616 103.922 159 104.939 159 106C159 107.059 158.617 108.076 157.936 108.826C157.254 109.576 156.33 109.998 155.365 110Z" fill="#B4E1FA"/>
<rect x="119" y="118" width="8" height="8" fill="#006FBB"/>
<rect x="131" y="118" width="8" height="8" fill="#1F81C5"/>
<rect x="143" y="118" width="8" height="8" fill="#1F81C5"/>
<rect x="155" y="118" width="8" height="8" fill="#1F81C5"/>
<rect x="167" y="118" width="8" height="8" fill="#1F81C5"/>
<g filter="url(#filter0_d)">
<circle cx="135" cy="153" r="12" fill="#006FBB"/>
</g>
<path d="M140.375 150.19H136.943V146.81C136.943 146.33 136.75 145.869 136.405 145.53C136.061 145.191 135.593 145 135.106 145C134.619 145 134.152 145.191 133.807 145.53C133.463 145.869 133.269 146.33 133.269 146.81V150.19H129.837C129.35 150.19 128.883 150.381 128.538 150.72C128.194 151.06 128 151.52 128 152C128 152.48 128.194 152.94 128.538 153.28C128.883 153.619 129.35 153.81 129.837 153.81H133.269V157.19C133.269 157.67 133.463 158.131 133.807 158.47C134.152 158.809 134.619 159 135.106 159C135.593 159 136.061 158.809 136.405 158.47C136.75 158.131 136.943 157.67 136.943 157.19V153.81H140.375C140.863 153.81 141.33 153.619 141.674 153.28C142.019 152.94 142.212 152.48 142.212 152C142.212 151.52 142.019 151.06 141.674 150.72C141.33 150.381 140.863 150.19 140.375 150.19Z" fill="#CDE0FE"/>
<g clip-path="url(#clip0)">
<path d="M91.5001 115.517C99.2413 115.517 105.517 109.242 105.517 101.501C105.517 93.7594 99.2413 87.4839 91.5001 87.4839C83.7589 87.4839 77.4834 93.7594 77.4834 101.501C77.4834 109.242 83.7589 115.517 91.5001 115.517Z" fill="#B4E1FA"/>
<path d="M91.5008 115.517C98.4412 115.517 104.067 109.242 104.067 101.501C104.067 93.7594 98.4412 87.4839 91.5008 87.4839C84.5604 87.4839 78.9341 93.7594 78.9341 101.501C78.9341 109.242 84.5604 115.517 91.5008 115.517Z" fill="#E3E7F2"/>
<path d="M78.9334 101.501C78.9334 93.7593 84.5597 87.4839 91.5001 87.4839C83.7589 87.4839 77.4834 93.7594 77.4834 101.501C77.4834 109.242 83.7589 115.517 91.5001 115.517C84.5597 115.517 78.9334 109.242 78.9334 101.501Z" fill="white"/>
<path d="M103.068 109.414C102.743 106.29 100.109 103.916 96.9681 103.916H94.0941C93.7297 103.916 93.4344 103.621 93.4344 103.256V102.944C93.4385 102.664 93.6169 102.415 93.8815 102.322C96.6869 101.267 98.6075 96.6653 98.2175 93.4127C97.8253 90.3201 95.3769 87.8923 92.2812 87.5262C92.0348 87.4988 91.7871 87.4846 91.5392 87.4835L91.5162 87.4829C89.719 87.4789 87.994 88.19 86.7218 89.4593C85.4494 90.7286 84.7344 92.452 84.7344 94.2492C84.7344 97.1607 86.5745 101.38 89.1544 102.335C89.4066 102.434 89.5712 102.678 89.5677 102.949V103.256C89.5677 103.621 89.2723 103.916 88.908 103.916H86.034C82.8926 103.916 80.2591 106.29 79.9338 109.414C82.5462 113.233 86.8746 115.516 91.501 115.516C96.1275 115.516 100.456 113.233 103.068 109.414Z" fill="#E3E7F2"/>
<path d="M96.9681 103.916H94.8844L91.501 107.783L87.6344 103.916H86.034C82.8926 103.916 80.2591 106.29 79.9338 109.414C82.5462 113.233 86.8746 115.516 91.501 115.516C96.1275 115.516 100.456 113.233 103.068 109.414C102.743 106.29 100.109 103.916 96.9681 103.916Z" fill="#B4E1FA"/>
<path d="M84.2499 113.982C84.1217 113.982 83.9987 113.932 83.9081 113.841C83.8174 113.75 83.7665 113.627 83.7666 113.499V110.201C83.7666 109.934 83.983 109.717 84.2499 109.717C84.5169 109.717 84.7332 109.934 84.7332 110.201V113.499C84.7333 113.627 84.6824 113.75 84.5917 113.841C84.5011 113.931 84.3782 113.982 84.2499 113.982Z" fill="#006FBB"/>
<path d="M98.7499 113.981C98.6217 113.981 98.4987 113.93 98.4081 113.839C98.3174 113.749 98.2665 113.626 98.2666 113.498V110.201C98.2666 109.934 98.483 109.717 98.7499 109.717C99.0168 109.717 99.2332 109.934 99.2332 110.201V113.498C99.2333 113.626 99.1824 113.749 99.0917 113.839C99.0011 113.93 98.8781 113.981 98.7499 113.981Z" fill="#006FBB"/>
<path d="M91.4997 108.267C91.3714 108.267 91.2485 108.216 91.1579 108.125L87.2913 104.259C87.153 104.12 87.1116 103.913 87.1865 103.732C87.2613 103.551 87.4375 103.434 87.633 103.434H88.9064C89.1734 103.434 89.3897 103.65 89.3897 103.917C89.3897 104.184 89.1734 104.4 88.9064 104.4H88.7998L91.4997 107.1L94.1995 104.4H94.0929C93.8259 104.4 93.6096 104.184 93.6096 103.917C93.6096 103.65 93.826 103.434 94.0929 103.434H95.3663C95.5618 103.434 95.7381 103.551 95.8128 103.732C95.8877 103.913 95.8463 104.121 95.7081 104.259L91.8414 108.125C91.7509 108.216 91.6279 108.267 91.4997 108.267Z" fill="#006FBB"/>
<path d="M91.5 116C83.4919 116 77 109.508 77 101.5C77 93.4919 83.4919 87 91.5 87C99.5081 87 106 93.4919 106 101.5C105.991 109.504 99.5044 115.991 91.5 116ZM91.5 87.9667C84.0258 87.9667 77.9667 94.0258 77.9667 101.5C77.9667 108.974 84.0258 115.033 91.5 115.033C98.9742 115.033 105.033 108.974 105.033 101.5C105.025 94.0292 98.9708 87.9751 91.5 87.9667Z" fill="#006FBB"/>
<path d="M91.4989 116.001C86.7133 116 82.2363 113.638 79.5331 109.689C79.4685 109.595 79.4394 109.48 79.451 109.366C79.7918 105.99 82.6389 103.424 86.0322 103.434H88.9057C89.0031 103.434 89.082 103.355 89.0823 103.258V102.951C89.0852 102.882 89.0465 102.819 88.9841 102.79C86.2742 101.787 84.2489 97.4549 84.2489 94.251C84.2489 92.3282 85.0127 90.4841 86.3723 89.1246C87.732 87.765 89.5761 87.0013 91.4989 87.0015H91.5149C91.7884 87.0023 92.0615 87.0178 92.3334 87.0477C95.6509 87.4411 98.2745 90.0428 98.6955 93.357C99.1024 96.7521 97.1615 101.606 94.0491 102.776C93.9741 102.8 93.9212 102.868 93.9156 102.946V103.258C93.9157 103.355 93.9947 103.434 94.0921 103.434H96.9657C100.359 103.424 103.206 105.99 103.547 109.366C103.558 109.48 103.529 109.595 103.465 109.689C100.761 113.638 96.2844 116 91.4989 116.001ZM80.4332 109.29C82.9674 112.892 87.0955 115.034 91.4989 115.034C95.9023 115.034 100.03 112.892 102.565 109.29C102.192 106.485 99.7955 104.392 96.9657 104.401H94.0921C93.4611 104.4 92.9498 103.889 92.9489 103.258V102.946C92.9512 102.464 93.2551 102.034 93.7093 101.871C96.303 100.896 98.0909 96.4378 97.7355 93.4721C97.3712 90.6018 95.0987 88.3485 92.2254 88.0087C91.9959 87.9829 91.7652 87.9696 91.5343 87.9686H91.5183C89.8485 87.9633 88.2454 88.6228 87.0629 89.8016C85.8804 90.9803 85.2156 92.5812 85.2156 94.251C85.2156 97.0783 87.0082 101.028 89.3196 101.883C89.7612 102.053 90.0517 102.478 90.0489 102.951V103.258C90.048 103.889 89.5367 104.4 88.9057 104.401H86.0322C83.2022 104.392 80.8055 106.485 80.4332 109.29Z" fill="#006FBB"/>
<path d="M93.5617 90.7097C95.3771 91.2032 96.9815 92.2762 98.131 93.7654C98.1231 93.6585 98.1196 93.5492 98.1071 93.4449C97.7149 90.3523 95.2665 87.9245 92.1708 87.5584C91.9244 87.5311 91.6768 87.5168 91.4289 87.5157L91.4057 87.5151C88.1166 87.5094 85.3003 89.8707 84.7322 93.1103L84.734 93.1132C84.8204 93.2351 87.6815 91.9345 89.0554 92.543C89.8943 92.9135 90.8478 92.9276 91.6973 92.582C92.5468 92.2364 93.2197 91.5607 93.5617 90.7097Z" fill="#A4C2F7"/>
<path d="M98.1328 94.2502C97.98 94.2501 97.8362 94.1778 97.7448 94.0552C96.7478 92.7584 95.38 91.7954 93.8229 91.294C92.8619 93.064 90.7034 93.8001 88.8612 92.9861C88.0319 92.6189 86.3162 93.1617 85.4911 93.4232C84.8586 93.6234 84.5697 93.7149 84.3417 93.394C84.2665 93.2881 84.2363 93.1567 84.2577 93.0286C84.8585 89.559 87.8718 87.0271 91.393 87.0332H91.4086C91.6817 87.0343 91.9546 87.0498 92.2262 87.0795C95.5439 87.4726 98.1677 90.0745 98.5888 93.3888C98.5982 93.4671 98.6034 93.5488 98.6081 93.6305L98.6147 93.7305C98.6247 93.8646 98.5784 93.9968 98.487 94.0953C98.3956 94.1939 98.2672 94.25 98.1328 94.2502ZM91.4133 88.0004C88.6451 87.9885 86.1968 89.7935 85.3896 92.4414C86.4313 92.1148 88.1583 91.6173 89.2529 92.1026C89.972 92.4199 90.7891 92.4317 91.5171 92.1355C92.2451 91.8392 92.8217 91.2601 93.1148 90.5308C93.2068 90.3032 93.4545 90.1805 93.6912 90.2452C95.0302 90.6146 96.2699 91.2781 97.3199 92.1875C96.5142 89.9298 94.4993 88.3233 92.1189 88.0405C91.8894 88.0149 91.6587 88.0015 91.4279 88.0004H91.4133Z" fill="#006FBB"/>
</g>
<defs>
<filter id="filter0_d" x="119" y="141" width="32" height="32" filterUnits="userSpaceOnUse" color-interpolation-filters="sRGB">
<feFlood flood-opacity="0" result="BackgroundImageFix"/>
<feColorMatrix in="SourceAlpha" type="matrix" values="0 0 0 0 0 0 0 0 0 0 0 0 0 0 0 0 0 0 127 0"/>
<feOffset dy="4"/>
<feGaussianBlur stdDeviation="2"/>
<feColorMatrix type="matrix" values="0 0 0 0 0 0 0 0 0 0 0 0 0 0 0 0 0 0 0.25 0"/>
<feBlend mode="normal" in2="BackgroundImageFix" result="effect1_dropShadow"/>
<feBlend mode="normal" in="SourceGraphic" in2="effect1_dropShadow" result="shape"/>
</filter>
<clipPath id="clip0">
<rect x="77" y="87" width="29" height="29" fill="white"/>
</clipPath>
</defs>
</svg>
