<svg width="20" height="20" viewBox="0 0 20 20" fill="none" xmlns="http://www.w3.org/2000/svg">
<path fill-rule="evenodd" clip-rule="evenodd" d="M17 4H14V2C14 0.897 13.103 0 12 0H8C6.897 0 6 0.897 6 2V4H3C2.447 4 2 4.448 2 5C2 5.552 2.447 6 3 6V19C3 19.552 3.447 20 4 20H16C16.553 20 17 19.552 17 19V6C17.553 6 18 5.552 18 5C18 4.448 17.553 4 17 4ZM5 18H15V6H5V18ZM8 4H12V2H8V4ZM8 16C8.553 16 9 15.552 9 15V9C9 8.448 8.553 8 8 8C7.447 8 7 8.448 7 9V15C7 15.552 7.447 16 8 16ZM12 16C12.553 16 13 15.552 13 15V9C13 8.448 12.553 8 12 8C11.447 8 11 8.448 11 9V15C11 15.552 11.447 16 12 16Z" fill="#007ACE"/>
<mask id="mask0" mask-type="alpha" maskUnits="userSpaceOnUse" x="2" y="0" width="16" height="20">
<path fill-rule="evenodd" clip-rule="evenodd" d="M17 4H14V2C14 0.897 13.103 0 12 0H8C6.897 0 6 0.897 6 2V4H3C2.447 4 2 4.448 2 5C2 5.552 2.447 6 3 6V19C3 19.552 3.447 20 4 20H16C16.553 20 17 19.552 17 19V6C17.553 6 18 5.552 18 5C18 4.448 17.553 4 17 4ZM5 18H15V6H5V18ZM8 4H12V2H8V4ZM8 16C8.553 16 9 15.552 9 15V9C9 8.448 8.553 8 8 8C7.447 8 7 8.448 7 9V15C7 15.552 7.447 16 8 16ZM12 16C12.553 16 13 15.552 13 15V9C13 8.448 12.553 8 12 8C11.447 8 11 8.448 11 9V15C11 15.552 11.447 16 12 16Z" fill="white"/>
</mask>
<g mask="url(#mask0)">
</g>
</svg>
