<svg width="22" height="22" viewBox="0 0 22 22" fill="none" xmlns="http://www.w3.org/2000/svg">
<path fill-rule="evenodd" clip-rule="evenodd" d="M2.20098 17.6V5.95536L10.2233 13.9777C10.4378 14.1922 10.7194 14.3 11.001 14.3C11.2826 14.3 11.5642 14.1922 11.7787 13.9777L19.801 5.95536V17.6H2.20098ZM18.2456 4.39995L11.001 11.6446L3.75638 4.39995H18.2456ZM20.901 2.19995H1.10098C0.493777 2.19995 0.000976562 2.69165 0.000976562 3.29995V18.6999C0.000976562 19.3083 0.493777 19.7999 1.10098 19.7999H20.901C21.5082 19.7999 22.001 19.3083 22.001 18.6999V3.29995C22.001 2.69165 21.5082 2.19995 20.901 2.19995Z" fill="#84C9EF"/>
<mask id="mask0" mask-type="alpha" maskUnits="userSpaceOnUse" x="0" y="2" width="23" height="18">
<path fill-rule="evenodd" clip-rule="evenodd" d="M2.20098 17.6V5.95536L10.2233 13.9777C10.4378 14.1922 10.7194 14.3 11.001 14.3C11.2826 14.3 11.5642 14.1922 11.7787 13.9777L19.801 5.95536V17.6H2.20098ZM18.2456 4.39995L11.001 11.6446L3.75638 4.39995H18.2456ZM20.901 2.19995H1.10098C0.493777 2.19995 0.000976562 2.69165 0.000976562 3.29995V18.6999C0.000976562 19.3083 0.493777 19.7999 1.10098 19.7999H20.901C21.5082 19.7999 22.001 19.3083 22.001 18.6999V3.29995C22.001 2.69165 21.5082 2.19995 20.901 2.19995Z" fill="white"/>
</mask>
<g mask="url(#mask0)">
</g>
</svg>
