<svg width="20" height="20" viewBox="0 0 20 20" fill="none" xmlns="http://www.w3.org/2000/svg">
<path d="M15 13.404C14.3667 13.404 13.7958 13.6499 13.3625 14.0457L7.425 10.5832C7.47083 10.3957 7.5 10.1999 7.5 9.99985C7.5 9.79985 7.47083 9.60402 7.425 9.41652L13.3 5.98735C13.7458 6.40402 14.3417 6.66235 15 6.66235C16.3792 6.66235 17.5 5.54152 17.5 4.16235C17.5 2.78319 16.3792 1.66235 15 1.66235C13.6208 1.66235 12.5 2.78319 12.5 4.16235C12.5 4.36235 12.5292 4.55819 12.575 4.74569L6.7 8.17485C6.25417 7.75819 5.65833 7.49985 5 7.49985C3.62083 7.49985 2.5 8.62069 2.5 9.99985C2.5 11.379 3.62083 12.4999 5 12.4999C5.65833 12.4999 6.25417 12.2415 6.7 11.8249L12.6375 15.2874C12.5958 15.4624 12.5708 15.6457 12.5708 15.8332C12.5708 17.1749 13.6583 18.2624 15 18.2624C16.3417 18.2624 17.4292 17.1749 17.4292 15.8332C17.4292 14.4915 16.3417 13.404 15 13.404Z" fill="#007ACE"/>
</svg>
