<svg width="24" height="24" viewBox="0 0 24 24" fill="none" xmlns="http://www.w3.org/2000/svg">
<path fill-rule="evenodd" clip-rule="evenodd" d="M0 12C0 5.37258 5.37258 0 12 0C18.6274 0 24 5.37258 24 12C24 18.6274 18.6274 24 12 24C5.37258 24 0 18.6274 0 12Z" fill="#0077B5"/>
<path fill-rule="evenodd" clip-rule="evenodd" d="M8.66094 7.41135C8.64329 6.6102 8.07039 6 7.14008 6C6.20977 6 5.60156 6.6102 5.60156 7.41135C5.60156 8.1959 6.19179 8.82367 7.10478 8.82367H7.12216C8.07039 8.82367 8.66094 8.1959 8.66094 7.41135ZM8.48216 9.9375H5.7627V18.1084H8.48216V9.9375ZM15.1593 9.74688C16.9488 9.74688 18.2904 10.9149 18.2904 13.4247L18.2903 18.1096H15.571V13.7382C15.571 12.6402 15.1774 11.8909 14.193 11.8909C13.4417 11.8909 12.9942 12.396 12.7976 12.8839C12.7257 13.0587 12.7081 13.3023 12.7081 13.5465V18.1098H9.98828C9.98828 18.1098 10.0241 10.7057 9.98828 9.93896H12.7081V11.0963C13.069 10.5399 13.7154 9.74688 15.1593 9.74688Z" fill="white"/>
</svg>
