<svg width="20" height="20" viewBox="0 0 20 20" fill="none" xmlns="http://www.w3.org/2000/svg">
<path fill-rule="evenodd" clip-rule="evenodd" d="M19 0C19.552 0 20 0.448 20 1V10C20 10.265 19.895 10.52 19.707 10.707L10.707 19.707C10.512 19.902 10.256 20 10 20C9.74401 20 9.48801 19.902 9.29301 19.707L0.293006 10.707C-0.0979941 10.316 -0.0979941 9.684 0.293006 9.293L9.29301 0.293C9.48001 0.106 9.73501 0 10 0H19ZM10 17.586L11.586 16L4.00001 8.414L2.41401 10L10 17.586ZM18 9.586V2H10.414L5.41401 7L13 14.586L18 9.586ZM15 6.0001C14.448 6.0001 14 5.5521 14 5.0001C14 4.4481 14.448 4.0001 15 4.0001C15.552 4.0001 16 4.4481 16 5.0001C16 5.5521 15.552 6.0001 15 6.0001Z" fill="#0171BF"/>
</svg>
