<svg width="19" height="19" viewBox="0 0 19 19" fill="none" xmlns="http://www.w3.org/2000/svg">
<path fill-rule="evenodd" clip-rule="evenodd" d="M17.9341 1.0659C16.5613 -0.3078 14.1654 -0.3078 12.7908 1.0659L12.35 1.5067L11.1216 0.27835C10.943 0.1007 10.7017 0 10.45 0H0.95C0.42465 0 0 0.4256 0 0.95V18.05C0 18.5753 0.42465 19 0.95 19H14.25C14.7744 19 15.2 18.5753 15.2 18.05V8.9433L17.9341 6.2092C18.621 5.52235 19 4.60845 19 3.63755C19 2.6657 18.621 1.75275 17.9341 1.0659ZM16.5928 4.86701L16.152 5.30781L13.6953 2.85111L14.1361 2.41031C14.7926 1.75386 15.9364 1.75386 16.5928 2.41031C16.9215 2.73901 17.102 3.17506 17.102 3.63866C17.102 4.10226 16.9215 4.53831 16.5928 4.86701ZM13.3023 17.1023H1.90234V1.90234H10.059L11.009 2.85234L5.98069 7.88069C5.87904 7.98234 5.81064 8.10204 5.76504 8.22934C5.76219 8.23789 5.75364 8.24359 5.75079 8.25214L3.85079 13.9521C3.73679 14.2932 3.82609 14.6703 4.08069 14.924C4.26119 15.1054 4.50439 15.2023 4.75234 15.2023C4.85304 15.2023 4.95374 15.1871 5.05254 15.1539L10.7525 13.2539C10.7611 13.251 10.7668 13.2425 10.7753 13.2396C10.9026 13.194 11.0223 13.1256 11.124 13.024L13.3023 10.8456V17.1023ZM7.06407 10.3086L8.69047 11.935L6.25087 12.7482L7.06407 10.3086ZM13.578 7.88036L13.577 7.88131L10.4496 11.0087L7.99295 8.55201L12.3496 4.19531L14.8063 6.65201L13.578 7.88036Z" fill="#1B74D4"/>
</svg>
