<svg width="440" height="401" viewBox="0 0 440 401" fill="none" xmlns="http://www.w3.org/2000/svg">
<path d="M172.885 66.6183C144.668 96.9947 102.582 97.3076 91.8978 212.647C48.6698 209.643 19.6271 161.207 10.7235 131.989C-0.0255607 96.7251 -8.47287 4.2015 26.1914 3.40908C60.8556 2.61666 201.102 36.242 172.885 66.6183Z" fill="url(#paint0_linear)"/>
<path d="M278.37 366.582C267.51 363.92 256.309 362.933 245.152 363.655C221.032 366.099 196.911 368.608 172.79 371.084C159.4 372.467 133.198 375.072 120.224 371.373C63.9427 355.294 88.1915 293.807 83.8671 248.624C81.4006 223.701 68.9398 201.222 62.0207 177.231C48.4708 130.312 71.9509 71.1077 116.733 53.0989C149.406 40.0103 187.397 33.5785 219.974 46.9566C243.183 57.1872 262.587 74.5061 275.423 96.4488C288.973 119.732 296.757 137.966 325.074 145.652C347.145 151.633 370.401 149.704 393.048 152.501C403.362 153.788 414.862 156.971 419.827 166.49C427.291 180.833 415.086 197.298 411.819 213.249C407.687 233.413 420.788 246.63 429.021 262.966C438.63 282.101 445.037 304.773 434.754 325.097C429.725 334.257 422.572 342.066 413.901 347.865C380.042 371.695 337.022 373.206 297.718 369.54C291.224 368.879 284.766 367.891 278.37 366.582Z" fill="#EBF5FA"/>
<path d="M404.544 294.932C399.707 276.859 392.628 258.593 392.948 243.864C393.333 227.142 405.537 208.49 395.383 192.668C388.656 182.216 375.234 179.225 363.702 178.132C347.686 176.62 330.645 177.424 315.653 171.186C308.532 168.409 302.352 163.644 297.843 157.454C292.942 150.315 291.917 141.374 288.233 133.721C279.136 114.04 258.891 106.129 238.358 107.318C219.619 108.412 200.72 114.811 182.685 106.772C153.856 93.9083 121.823 77.8289 92.9932 93.9083C70.1539 106.772 66.3099 137.13 73.7736 159.769C78.2065 173.103 85.6757 185.215 95.5879 195.144C106.671 206.367 120.573 212.413 123.04 229.714C127.3 259.622 105.934 286.153 96.3567 312.684C83.5436 348.058 118.78 367.354 147.609 351.274C170.032 341.627 189.252 315.9 218.081 331.979C226.954 339.086 231.919 347.447 237.749 357.063C238.739 359.192 240.368 360.958 242.407 362.111C244.446 363.265 246.794 363.748 249.121 363.494C266.835 365.167 284.87 367.932 302.648 368.511C318.921 369.026 335.546 365.874 351.562 362.883C365.785 360.246 383.595 362.883 395.383 353.236C413.001 338.411 410.406 316.832 404.544 294.932Z" fill="#B4E1FA"/>
<path d="M388.976 301.877C384.588 285.508 378.181 268.979 378.502 255.633C378.854 240.486 389.905 223.474 380.712 209.292C374.626 199.838 362.453 197.136 351.882 196.139C337.339 194.756 321.964 195.496 308.222 189.708C301.813 187.172 296.257 182.855 292.205 177.262C287.753 170.83 286.824 162.791 283.588 155.748C275.356 137.9 257.033 130.761 238.422 131.854C221.445 132.851 204.339 138.64 188.003 131.372C161.896 119.73 132.874 105.162 106.767 119.73C86.1062 131.275 82.6147 158.867 89.2454 179.385C93.276 191.425 100.043 202.358 109.01 211.318C119.036 221.48 131.625 226.947 133.867 242.609C137.711 269.686 118.395 293.741 109.682 317.731C98.0865 349.89 129.991 367.256 156.098 352.688C176.407 343.941 193.8 320.529 219.907 335.226C227.915 341.657 232.432 349.247 237.717 357.962C238.615 359.892 240.093 361.492 241.943 362.536C243.793 363.58 245.923 364.016 248.032 363.783C264.048 365.294 280.385 367.802 296.498 368.317C311.233 368.799 326.288 365.937 340.767 363.236C353.58 360.856 369.596 363.236 380.456 354.424C396.632 341.239 394.294 321.558 388.976 301.877Z" fill="#006FBB" fill-opacity="0.64"/>
<path d="M222.219 148.383C222.219 148.383 100.783 180.542 97.6438 184.948C94.5045 189.354 79.4491 201.22 90.9169 248.075C102.385 294.931 110.681 357.962 143.931 349.89C177.181 341.818 228.177 334.647 228.978 327.893C229.779 321.14 253.836 139.893 222.219 148.383Z" fill="#084E8A"/>
<path d="M222.221 148.386C222.221 148.386 112.06 177.618 98.9269 184.114C94.1861 196.334 113.63 196.174 116.673 202.252C121.297 210.618 122.996 220.298 121.498 229.747C120 239.196 115.392 247.869 108.409 254.381C113.143 254.245 117.809 255.535 121.805 258.086C125.802 260.636 128.946 264.33 130.832 268.691C137.238 287.987 131.376 296.702 123.816 302.651C129.839 306.414 135.989 309.79 140.73 319.341C144.51 330.726 151.749 342.142 143.453 349.956H143.901C177.119 341.852 253.934 325.419 250.57 319.502C237.565 296.187 260.468 155.943 222.221 148.386Z" fill="#084E8A"/>
<path d="M354.038 296.088L163.603 371.34L189.421 382.981C219.28 396.437 251.918 402.508 284.596 400.684C317.275 398.86 349.041 389.194 377.23 372.497L425.279 344.133C428.917 341.984 431.794 338.746 433.505 334.872C435.217 330.998 435.677 326.684 434.822 322.534C433.967 318.384 431.84 314.607 428.738 311.733C425.636 308.859 421.716 307.032 417.527 306.508L354.038 296.088Z" fill="#F4E4E5"/>
<path d="M219.396 206.753C219.396 206.753 246.495 187.683 253.799 228.203C257.002 245.472 257.547 249.846 257.547 249.846C280.482 253.415 283.621 261.712 312.707 265.121C334.97 265.121 346.438 277.02 346.438 277.02C346.438 277.02 349.993 285.96 348.52 290.108C347.922 291.396 347.031 292.525 345.918 293.402C344.805 294.279 343.501 294.88 342.113 295.157C342.201 296.857 341.789 298.546 340.928 300.013C339.647 301.396 337.725 288.79 333.817 286.121C329.909 283.451 332.631 290.687 331.35 291.491C330.069 292.295 324.944 287.021 321.068 280.557C317.192 274.093 303.161 284.963 243.644 274.415C224.809 255.859 219.396 206.753 219.396 206.753Z" fill="url(#paint1_linear)"/>
<path d="M260.462 230.229C258.924 226.563 256.97 220.582 255.304 215.951C239.288 172.312 219.396 178.84 219.396 178.84C222.382 200.056 227.031 221.003 233.298 241.485C242.719 238.695 251.823 234.923 260.462 230.229Z" fill="#EF6A6A"/>
<path d="M244.931 331.463C233.303 342.847 205.787 350.179 185.029 349.858C176.28 349.454 167.573 348.379 158.987 346.642C143.929 319.495 135.046 289.337 132.976 258.334L127.05 259.91C118.789 246.219 114.167 230.628 113.628 214.63C113.244 189.193 153.413 175.493 156.969 174.303C185.798 164.334 210.559 172.342 229.106 179.642C248.646 223.024 231.829 283.386 244.931 331.463Z" fill="#FA7070"/>
<g style="mix-blend-mode:multiply">
<path d="M175.576 314.355C187.524 342.623 185.41 349.087 185.026 349.73C175.416 349.73 167.216 347.833 162.859 344.006C141.461 317.218 132.94 258.271 132.94 258.271L135.311 257.499C141.404 256.162 146.802 252.641 150.494 247.594C157.478 238.622 162.827 239.844 162.827 239.844C160.194 232.459 156.869 225.341 152.897 218.587C162.507 225.34 172.885 247.53 173.27 258.528C173.654 269.526 204.534 270.395 204.534 270.395C204.534 270.395 162.763 284.191 175.576 314.355Z" fill="#E6E7E8"/>
</g>
<path d="M157.64 165.364C157.64 165.364 148.703 173.919 147.325 178.517C149.471 188.647 168.563 206.109 174.777 204.244C180.799 192.378 184.996 191.767 184.996 191.767L185.668 175.687L157.64 165.364Z" fill="white"/>
<path d="M184.997 191.896C184.997 191.896 194.863 193.89 196.881 202.637C203.864 202.637 214.082 186.558 210.591 171.926C205.369 163.629 192.973 160.606 192.973 160.606L184.997 191.896Z" fill="white"/>
<path d="M200.593 171.958C198.542 176.91 193.001 183.342 185.025 191.864C183.167 184.532 165.805 180.19 158.213 174.048C157.126 173.225 156.22 172.185 155.554 170.993C155.419 170.749 155.311 170.49 155.234 170.221C154.369 167.616 156.387 165.751 159.558 164.465L160.071 164.272C166.492 162.296 173.153 161.214 179.867 161.056C184.654 159.873 189.655 159.873 194.442 161.056C194.769 161.131 195.09 161.227 195.403 161.345C196.552 161.773 197.631 162.369 198.606 163.114C199.66 163.869 200.481 164.905 200.977 166.105C201.625 168.03 201.486 170.135 200.593 171.958Z" fill="#E25A5A"/>
<path d="M200.589 171.96C198.539 176.913 192.998 183.345 185.021 191.867C183.163 184.535 165.802 180.193 158.21 174.051C158.825 172.946 159.268 171.753 159.523 170.513C159.957 168.399 160.129 166.239 160.036 164.082C160.036 163.599 160.036 163.117 160.036 162.667C159.331 150.768 150.266 137.647 163.88 137.519C174.421 137.912 184.787 140.347 194.407 144.69C194.118 150.132 194.118 155.585 194.407 161.027C194.525 163.196 194.847 165.35 195.368 167.458C195.534 168.386 195.981 169.24 196.649 169.902C197.869 170.756 199.193 171.448 200.589 171.96Z" fill="#FFC9AE"/>
<g style="mix-blend-mode:multiply" opacity="0.3">
<g style="mix-blend-mode:multiply" opacity="0.3">
<g style="mix-blend-mode:multiply" opacity="0.3">
<path d="M194.735 180.962C197.091 178.256 199.063 175.237 200.597 171.99C199.196 171.448 197.871 170.723 196.657 169.835C195.989 169.173 195.542 168.319 195.376 167.391C194.855 165.283 194.533 163.129 194.415 160.96C194.125 155.518 194.125 150.065 194.415 144.623C184.774 140.331 174.397 137.951 163.856 137.612C162.695 137.465 161.517 137.582 160.407 137.956C159.298 138.329 158.287 138.948 157.449 139.767C160.685 160.542 177.053 172.569 194.735 180.962Z" fill="#EF9D78"/>
</g>
</g>
</g>
<path d="M215.815 122.463C217.53 128.637 217.541 135.162 215.848 141.341C214.156 147.521 210.823 153.123 206.206 157.548C202.362 161.311 204.54 163.723 196.596 165.17C155.978 166.456 148.546 124.907 148.226 111.851C147.906 98.7944 220.108 59.7538 215.815 122.463Z" fill="url(#paint2_linear)"/>
<path d="M146.303 143.849C148.736 145.985 151.453 147.77 154.376 149.155C156.628 150.409 159.221 150.905 161.775 150.57C158.182 144.94 155.914 138.561 155.144 131.918C154.952 130.182 155.144 127.963 156.81 127.416C157.398 127.327 157.998 127.387 158.557 127.589C159.116 127.791 159.617 128.129 160.013 128.574C162.676 130.928 164.452 134.13 165.042 137.642C164.468 132.067 166.118 126.49 169.63 122.132C173.142 117.775 178.23 114.991 183.782 114.392C189.387 113.363 193.968 115.582 199.51 115.453C207.87 115.228 215.814 114.199 220.876 106.609C222.782 103.594 223.982 100.184 224.387 96.6361C224.792 93.0882 224.391 89.4942 223.214 86.1241C221.077 87.1677 218.693 87.5941 216.328 87.3556C213.964 87.1171 211.712 86.223 209.824 84.7735C205.852 82.2008 202.713 78.3418 198.933 75.6083C191.962 70.6409 183.617 67.9871 175.069 68.0188C169.525 67.9602 163.992 68.521 158.572 69.691C153.639 70.6879 148.61 71.299 145.214 75.4153C144.23 77.0448 143.363 78.7428 142.62 80.4963C134.836 80.4963 124.04 88.4717 127.5 104.326C130.447 118.347 135.252 134.201 146.303 143.849Z" fill="#332B28"/>
<path d="M165.428 169.027L151.75 148.767C151.425 148.295 151.25 147.734 151.25 147.159C151.25 146.585 151.425 146.024 151.75 145.551L157.548 136.547C157.8 136.135 158.153 135.794 158.574 135.558C158.994 135.321 159.468 135.197 159.95 135.197C160.432 135.197 160.906 135.321 161.327 135.558C161.747 135.794 162.1 136.135 162.353 136.547L176.96 162.081C177.143 162.404 177.26 162.76 177.306 163.129C177.352 163.498 177.325 163.872 177.227 164.23C177.129 164.589 176.961 164.924 176.734 165.217C176.507 165.511 176.224 165.756 175.902 165.94L167.446 170.764L165.428 169.027Z" fill="#084E8A"/>
<path d="M164.758 168.254L151.945 149.312C151.663 148.883 151.514 148.379 151.514 147.865C151.514 147.351 151.663 146.848 151.945 146.418L156.942 138.893C157.176 138.507 157.506 138.188 157.898 137.967C158.291 137.746 158.734 137.629 159.184 137.629C159.634 137.629 160.077 137.746 160.47 137.967C160.862 138.188 161.192 138.507 161.426 138.893L175.104 162.787C175.275 163.089 175.385 163.421 175.428 163.766C175.471 164.111 175.445 164.46 175.353 164.795C175.261 165.129 175.104 165.443 174.89 165.716C174.677 165.99 174.413 166.218 174.111 166.389L166.648 170.023L164.758 168.254Z" fill="#FA7070"/>
<path d="M158.7 150.533C159.85 150.533 160.782 149.367 160.782 147.929C160.782 146.49 159.85 145.324 158.7 145.324C157.55 145.324 156.618 146.49 156.618 147.929C156.618 149.367 157.55 150.533 158.7 150.533Z" fill="white"/>
<path d="M135.347 257.661C153.157 252.998 149.602 240.296 162.863 239.717L163.888 241.582C163.888 241.582 164.817 227.207 174.812 195.145C174.812 195.145 164.433 176.975 163.824 172.634C163.216 168.292 167.028 153.338 171.544 153.564C172.761 153.607 173.927 154.063 174.852 154.857C175.777 155.652 176.406 156.737 176.637 157.937C176.637 157.937 179.552 158.323 180.161 162.793C180.161 162.793 184.614 161.603 184.614 168.742C186.407 169.032 189.963 171.958 188.169 178.872C186.375 185.787 193.583 194.373 188.65 197.943C187.561 210.163 194.704 258.69 174.331 280.14C159.756 285.961 142.651 267.309 135.347 257.661Z" fill="url(#paint3_linear)"/>
<path d="M395.995 319.999C395.881 320.793 395.588 321.55 395.138 322.213C394.689 322.876 394.094 323.428 393.4 323.826L316.137 369.137C315.507 369.513 314.805 369.752 314.077 369.841C313.349 369.93 312.611 369.865 311.909 369.652L257.133 353.572C256.074 353.26 255.138 352.627 254.452 351.759C253.766 350.892 253.364 349.833 253.301 348.727C253.238 347.622 253.517 346.524 254.1 345.583C254.682 344.643 255.54 343.906 256.556 343.475L327.477 313.213L344.55 305.913C345.565 305.498 346.677 305.386 347.754 305.592L391.799 313.889C393.151 314.162 394.345 314.952 395.128 316.092C395.911 317.232 396.222 318.633 395.995 319.999Z" fill="#006FBB"/>
<path d="M395.997 319.999C395.883 320.793 395.59 321.55 395.14 322.213C394.691 322.876 394.096 323.428 393.402 323.826L316.139 369.137C314.858 369.909 315.37 367.787 313.961 367.369L259.185 351.289C254.348 349.906 251.913 345.436 256.558 343.475L327.479 313.213L344.552 305.913C345.567 305.498 346.679 305.386 347.756 305.592L391.801 313.889C393.153 314.162 394.347 314.952 395.129 316.092C395.912 317.232 396.223 318.633 395.997 319.999Z" fill="#EFB4BA"/>
<path d="M408.012 252.577C408.542 252.348 409.124 252.268 409.696 252.344C410.268 252.42 410.809 252.649 411.262 253.008C411.715 253.367 412.063 253.842 412.269 254.384C412.475 254.925 412.532 255.512 412.433 256.082L395.872 320.946C395.758 321.74 395.465 322.498 395.015 323.161C394.565 323.824 393.971 324.376 393.277 324.773L316.014 370.085C315.383 370.46 314.682 370.7 313.954 370.789C313.226 370.877 312.487 370.813 311.786 370.599L327.354 314.129L332.639 294.834C332.903 293.883 333.358 292.996 333.975 292.228C334.591 291.459 335.358 290.825 336.227 290.364L408.012 252.577Z" fill="#FA7070"/>
<path d="M201.458 359.688L209.755 384.225C209.755 384.225 230.704 396.027 244.991 383.164C253.191 361.875 253.352 357.694 253.352 357.694L201.458 359.688Z" fill="#006FBB"/>
<path d="M198.677 355.119C199.966 359.359 201.616 363.48 203.61 367.436C205.948 371.391 242.85 372.517 251.915 365.699C256.176 355.505 255.951 354.058 255.951 354.058L198.677 355.119Z" fill="#B4E1FA"/>
<path opacity="0.88" d="M197.997 353.381L198.669 355.118C198.669 355.118 202.417 359.684 218.434 359.266C234.45 358.848 253.862 359.266 255.976 354.057C258.09 348.847 208.792 348.172 197.997 353.381Z" fill="#001429" fill-opacity="0.84"/>
<path d="M202.996 353.382L203.541 354.443C203.541 354.443 206.744 357.209 219.781 356.952C232.819 356.694 248.899 356.952 250.629 353.736C252.359 350.52 212.029 350.23 202.996 353.382Z" fill="#E1E2FF"/>
<path d="M225.424 354.2C220.653 340.251 211.489 328.241 199.317 319.983C193.22 315.309 185.637 313.023 177.983 313.551C175.673 313.721 173.506 314.74 171.897 316.413C170.931 317.787 170.412 319.427 170.412 321.109C170.412 322.79 170.931 324.43 171.897 325.804C173.92 328.494 176.586 330.629 179.649 332.01C193.359 339.246 211.266 340.404 218.793 354.007C219.402 355.1 224.623 351.499 225.2 352.624" fill="#006FBB"/>
<path d="M249.668 344.07C246.001 345.574 242.796 348.026 240.379 351.177C238.119 353.834 234.957 355.553 231.506 356.001C231.371 356.07 231.222 356.104 231.071 356.102C230.919 356.1 230.771 356.06 230.639 355.988C230.506 355.915 230.393 355.81 230.31 355.684C230.227 355.557 230.175 355.412 230.16 355.261C229.296 352.656 228.911 349.923 227.95 347.35C226.443 343.569 224.416 340.019 221.928 336.802C218.573 332.239 216.907 326.644 217.219 320.98C218.949 326.704 224.234 327.959 229.167 329.663C230.545 330.145 231.153 330.563 231.474 329.084C231.362 326.711 230.785 324.383 229.776 322.234C229.231 320.305 228.687 318.375 228.27 316.414C227.889 314.558 227.643 312.677 227.534 310.786C227.371 308.877 227.523 306.954 227.982 305.094C228.419 303.629 229.078 302.241 229.936 300.977C231.916 297.971 234.6 295.498 237.752 293.774C237.598 294.671 237.636 295.591 237.862 296.472C238.088 297.353 238.499 298.177 239.066 298.887C240.027 300.872 241.198 302.748 242.557 304.483C242.835 304.778 243.187 304.993 243.575 305.106C243.964 305.219 244.375 305.226 244.767 305.126C245.292 304.911 245.739 304.541 246.049 304.065C247.131 302.338 248.012 300.493 248.675 298.565C250.244 295.647 252.451 293.124 255.131 291.186C257.811 289.247 260.893 287.944 264.147 287.374C264.665 287.323 265.188 287.377 265.685 287.535C266.389 287.875 266.971 288.425 267.35 289.111C268.474 290.932 269.195 292.974 269.466 295.098C269.737 297.223 269.55 299.381 268.92 301.428C268.424 303.439 267.495 305.316 266.197 306.927C264.532 308.663 262.578 309.596 261.264 311.783C259.567 314.645 266.261 313.133 267.222 312.844C268.855 312.427 270.411 311.754 271.835 310.85C272.542 310.389 273.14 309.78 273.588 309.063C274.036 308.347 274.324 307.541 274.43 306.702C277.035 309.238 278.532 312.707 278.594 316.349C278.594 325.804 268.792 325.997 262.097 328.441C262.731 329.262 263.522 329.948 264.424 330.456C265.327 330.964 266.322 331.285 267.35 331.399C269.031 331.488 270.688 330.975 272.027 329.952C272.027 329.952 272.027 332.911 272.027 333.168C271.726 334.355 271.156 335.455 270.362 336.384C268.516 338.367 266.075 339.689 263.41 340.147C258.723 341.042 254.124 342.355 249.668 344.07Z" fill="#006FBB"/>
<path d="M225.711 355.325C223.47 353.842 221.608 351.849 220.278 349.507C218.948 347.166 218.186 344.543 218.055 341.851C217.848 336.489 217.966 331.119 218.408 325.772C218.623 320.249 217.583 314.75 215.365 309.692C213.609 306.338 211.618 303.114 209.407 300.045C207.193 296.986 205.623 293.506 204.794 289.818C204.402 287.969 204.451 286.053 204.935 284.226C205.419 282.399 206.326 280.712 207.581 279.302C209.67 277.44 212.251 276.223 215.012 275.797C217.775 275.142 220.643 275.065 223.437 275.572C224.238 275.699 224.996 276.019 225.647 276.504C226.244 277.049 226.695 277.734 226.961 278.498C229.139 283.997 227.185 290.14 225.936 295.928C225.017 298.85 225.096 301.996 226.16 304.868C227.819 307.467 230.157 309.558 232.919 310.914C235.697 312.292 237.817 314.721 238.813 317.668C239.15 319.917 238.636 322.212 237.371 324.099C236.218 326.029 234.681 327.669 233.335 329.47C230.595 333.237 228.773 337.596 228.016 342.199C227.259 346.801 227.589 351.517 228.979 355.969" fill="#B4E1FA"/>
<path d="M396.059 81.621C396.059 99.7906 372.419 114.519 343.269 114.519C336.065 114.544 328.891 113.603 321.935 111.722C320.013 111.175 305.662 114.519 305.662 114.519C305.662 114.519 311.749 108.088 309.666 106.994C297.942 100.948 290.447 91.8474 290.447 81.621C290.447 63.4513 314.087 48.7227 343.237 48.7227C372.387 48.7227 396.059 63.4513 396.059 81.621Z" fill="#11AEF5"/>
<path d="M323.6 86.7017C326.077 86.7017 328.085 84.686 328.085 82.1995C328.085 79.713 326.077 77.6973 323.6 77.6973C321.124 77.6973 319.116 79.713 319.116 82.1995C319.116 84.686 321.124 86.7017 323.6 86.7017Z" fill="white"/>
<path d="M343.87 86.7017C346.347 86.7017 348.354 84.686 348.354 82.1995C348.354 79.713 346.347 77.6973 343.87 77.6973C341.393 77.6973 339.385 79.713 339.385 82.1995C339.385 84.686 341.393 86.7017 343.87 86.7017Z" fill="white"/>
<path d="M364.154 86.7017C366.631 86.7017 368.639 84.686 368.639 82.1995C368.639 79.713 366.631 77.6973 364.154 77.6973C361.678 77.6973 359.67 79.713 359.67 82.1995C359.67 84.686 361.678 86.7017 364.154 86.7017Z" fill="white"/>
<path d="M231.154 23.5224C231.28 18.5688 227.382 14.4532 222.447 14.3301C217.513 14.207 213.411 18.1229 213.286 23.0765C213.16 28.0302 217.059 32.1457 221.993 32.2688C226.927 32.392 231.029 28.4761 231.154 23.5224Z" fill="#EBF5FA"/>
<path d="M260.162 54.1718C260.245 50.8871 257.659 48.1574 254.387 48.0748C251.115 47.9923 248.396 50.5881 248.314 53.8728C248.232 57.1575 250.817 59.8872 254.089 59.9698C257.361 60.0524 260.08 57.4565 260.162 54.1718Z" fill="#EBF5FA"/>
<path d="M300.607 43.8512C300.673 41.6489 298.948 39.8099 296.754 39.7439C294.561 39.6778 292.729 41.4096 292.663 43.6119C292.597 45.8143 294.322 47.6532 296.516 47.7192C298.71 47.7853 300.541 46.0535 300.607 43.8512Z" fill="#EBF5FA"/>
<path d="M224.058 21.3247L255.13 53.0332L253.849 52.7438L294.851 41.5847L254.586 55.2521L253.913 55.4772L253.304 54.9305L220.375 25.2159L224.058 21.3247Z" fill="#EBF5FA"/>
<path d="M302.294 172.402C302.403 172.648 302.531 172.885 302.678 173.11C302.991 173.695 303.52 174.134 304.152 174.332C304.419 174.397 304.697 174.405 304.967 174.355C305.238 174.306 305.495 174.199 305.721 174.042C306.304 173.631 306.788 173.094 307.137 172.471C307.486 171.848 307.692 171.154 307.739 170.441C307.964 168.532 307.811 166.598 307.291 164.749C306.762 162.665 305.908 160.679 304.76 158.864C303.623 156.986 301.979 155.469 300.019 154.49C298.078 153.556 295.907 153.209 293.773 153.493C291.331 153.831 288.998 154.722 286.95 156.098C283.508 158.222 280.603 161.116 278.461 164.556C276.464 167.776 275.43 171.504 275.482 175.297C275.638 179.3 276.915 183.179 279.166 186.488C280.478 188.587 282.24 190.367 284.323 191.698C286.421 193.021 288.862 193.693 291.338 193.627C294.266 193.494 297.097 192.535 299.507 190.861C301.31 189.771 302.95 188.428 304.376 186.874C305.613 185.455 306.687 183.902 307.579 182.243C307.727 181.937 307.947 181.672 308.22 181.471C308.529 181.295 308.887 181.224 309.24 181.271C309.592 181.317 309.92 181.478 310.174 181.728C310.354 181.83 310.508 181.974 310.622 182.146C311.028 182.768 310.868 183.712 310.142 184.976C309.105 186.763 307.927 188.462 306.618 190.058C305.202 191.671 303.549 193.059 301.717 194.174C298.645 196.308 295.038 197.534 291.306 197.711C288.173 197.797 285.085 196.946 282.433 195.267C279.84 193.557 277.653 191.295 276.027 188.643C273.403 184.704 271.948 180.098 271.83 175.361C271.736 170.834 272.924 166.373 275.258 162.497C277.722 158.424 281.115 154.996 285.156 152.496C287.9 150.685 291.047 149.58 294.317 149.28C297.096 149.116 299.863 149.752 302.294 151.113C304.763 152.449 306.839 154.411 308.316 156.805C309.822 159.183 310.835 161.841 311.295 164.62C311.79 167.301 311.614 170.064 310.782 172.66C309.99 175.135 308.343 177.245 306.138 178.609C305.021 179.322 303.712 179.67 302.39 179.606C301.183 179.552 300.041 179.047 299.186 178.191C299.281 179.698 298.949 181.201 298.229 182.527C297.51 183.853 296.431 184.947 295.118 185.684C294.035 186.379 292.784 186.768 291.499 186.809C290.132 186.855 288.78 186.521 287.591 185.845C286.265 185.068 285.161 183.96 284.387 182.629C283.202 180.673 282.468 178.475 282.241 176.197C281.927 173.765 282.157 171.293 282.914 168.961C283.534 166.845 284.885 165.021 286.726 163.816C287.677 163.197 288.797 162.893 289.929 162.948C291.078 162.973 292.194 163.343 293.132 164.009L292.588 162.755C292.402 162.224 292.402 161.646 292.588 161.115C292.82 160.455 293.288 159.905 293.901 159.571C295.439 158.606 296.592 158.735 297.361 159.957C297.507 160.182 297.636 160.419 297.745 160.664L302.294 172.402ZM294.446 168.608C294.198 168.114 293.841 167.684 293.403 167.349C292.964 167.015 292.455 166.785 291.915 166.678C290.883 166.582 289.85 166.855 289 167.45C288.45 167.812 287.98 168.284 287.622 168.838C287.264 169.392 287.024 170.014 286.918 170.666C286.585 172.17 286.585 173.729 286.918 175.232C287.246 176.747 287.831 178.194 288.648 179.509C289.142 180.432 289.966 181.133 290.954 181.471C291.408 181.585 291.881 181.599 292.34 181.51C292.8 181.421 293.234 181.232 293.613 180.957C294.51 180.389 295.196 179.542 295.567 178.545C295.969 177.521 296.175 176.43 296.175 175.329C296.192 174.363 296.074 173.399 295.823 172.467C295.596 171.122 295.164 169.82 294.542 168.608H294.446Z" fill="white"/>
<path d="M96.4898 96.2227C93.9886 95.5597 91.3282 95.9096 89.0814 97.1968C86.8346 98.484 85.1813 100.606 84.4775 103.105C82.7477 109.536 89.2183 122.979 89.2183 122.979C89.2183 122.979 101.743 114.714 103.473 108.411C103.821 107.15 103.916 105.833 103.753 104.535C103.589 103.237 103.171 101.984 102.521 100.85C101.871 99.7162 101.003 98.7232 99.968 97.9287C98.9327 97.1343 97.7503 96.5544 96.4898 96.2227ZM92.3896 111.016C91.3612 110.724 90.4419 110.133 89.7476 109.317C89.0532 108.501 88.6149 107.497 88.4878 106.432C88.3608 105.367 88.5507 104.288 89.0336 103.33C89.5165 102.373 90.2708 101.581 91.2015 101.053C92.1321 100.526 93.1975 100.287 94.2633 100.366C95.3291 100.445 96.3477 100.84 97.1907 101.499C98.0337 102.159 98.6634 103.054 99.0004 104.072C99.3374 105.09 99.3666 106.186 99.0845 107.221C98.6958 108.614 97.7729 109.796 96.518 110.507C95.2631 111.218 93.7786 111.401 92.3896 111.016Z" fill="white"/>
<path d="M116.516 160.573L112.928 160.959L112.544 157.357C112.519 157.104 112.444 156.858 112.324 156.633C112.204 156.409 112.041 156.21 111.845 156.049C111.649 155.888 111.423 155.767 111.18 155.694C110.937 155.62 110.682 155.595 110.43 155.62C110.177 155.646 109.932 155.721 109.709 155.841C109.485 155.962 109.288 156.125 109.127 156.322C108.966 156.519 108.846 156.746 108.773 156.99C108.699 157.234 108.675 157.49 108.7 157.743L109.084 161.345L105.497 161.731C104.987 161.782 104.518 162.034 104.194 162.432C103.87 162.83 103.716 163.341 103.767 163.853C103.818 164.365 104.069 164.835 104.466 165.161C104.862 165.487 105.371 165.641 105.881 165.59L109.469 165.204L109.853 168.806C109.904 169.317 110.155 169.788 110.552 170.113C110.948 170.439 111.458 170.593 111.967 170.542C112.477 170.491 112.946 170.239 113.27 169.841C113.594 169.442 113.748 168.931 113.697 168.42L113.313 164.786L116.9 164.4C117.153 164.374 117.398 164.299 117.621 164.179C117.845 164.059 118.042 163.895 118.203 163.698C118.364 163.501 118.484 163.274 118.557 163.03C118.631 162.787 118.655 162.531 118.63 162.277C118.605 162.024 118.53 161.778 118.41 161.554C118.29 161.329 118.128 161.131 117.931 160.969C117.735 160.808 117.509 160.687 117.266 160.614C117.023 160.54 116.768 160.515 116.516 160.541V160.573Z" fill="white"/>
<path d="M88.3494 25.2489C88.1708 22.446 89.0515 19.6784 90.816 17.4987C91.6828 16.576 92.7392 15.8537 93.9118 15.3817C95.0844 14.9096 96.3453 14.6993 97.6069 14.7652C99.0754 14.7859 100.52 15.1376 101.835 15.7943C103.232 16.4488 104.477 17.3911 105.487 18.5599C106.413 19.5695 106.938 20.8857 106.961 22.2582C107.027 23.1019 106.801 23.9427 106.32 24.6379C105.828 25.2132 105.2 25.6555 104.494 25.9243C103.662 25.429 102.706 25.1835 101.739 25.2168C100.762 25.1657 99.7979 25.4617 99.0164 26.0529C98.708 26.2725 98.4548 26.5612 98.2769 26.8961C98.099 27.2311 98.0012 27.603 97.9913 27.9825C98.0214 28.8383 98.2975 29.6672 98.7863 30.369C99.2751 31.0709 99.9558 31.6158 100.746 31.938C101.172 32.1291 101.611 32.2902 102.059 32.4203C102.69 32.6178 103.277 32.9344 103.789 33.3529C104.079 33.6393 104.302 33.9872 104.44 34.3712C104.579 34.7551 104.63 35.1655 104.59 35.5719C104.639 36.1425 104.547 36.7164 104.324 37.2434C104.101 37.7704 103.752 38.2343 103.309 38.5948C102.284 39.2686 101.072 39.5954 99.8492 39.5274C97.7456 39.4367 95.764 38.5114 94.3396 36.9547C92.5526 35.2127 91.0883 33.1655 90.0152 30.9089C89.0625 29.1638 88.4945 27.2336 88.3494 25.2489ZM66.5671 25.2489C66.3885 22.446 67.2692 19.6784 69.0337 17.4987C69.9005 16.576 70.9569 15.8537 72.1295 15.3817C73.3021 14.9096 74.563 14.6993 75.8246 14.7652C77.2931 14.7859 78.7381 15.1376 80.0529 15.7943C81.451 16.4471 82.6955 17.3896 83.7047 18.5599C84.6311 19.5695 85.1555 20.8857 85.1782 22.2582C85.242 23.1016 85.0159 23.9416 84.5375 24.6379C84.0456 25.2132 83.4178 25.6555 82.7117 25.9243C81.8796 25.429 80.9236 25.1835 79.9569 25.2168C78.9796 25.1657 78.0156 25.4617 77.2341 26.0529C76.9257 26.2725 76.6725 26.5612 76.4946 26.8961C76.3167 27.2311 76.2189 27.603 76.209 27.9825C76.2391 28.8383 76.5152 29.6672 77.004 30.369C77.4928 31.0709 78.1734 31.6158 78.9638 31.938C79.39 32.1291 79.8288 32.2902 80.2772 32.4203C80.9082 32.6164 81.4956 32.9331 82.0069 33.3529C82.2971 33.6393 82.5196 33.9872 82.6582 34.3712C82.7968 34.7551 82.8479 35.1655 82.8078 35.5719C82.8593 36.1428 82.7692 36.7176 82.5456 37.2451C82.3221 37.7725 81.9719 38.2362 81.5265 38.5948C80.5021 39.2686 79.2897 39.5954 78.0669 39.5274C75.9633 39.4367 73.9816 38.5114 72.5573 36.9547C70.7687 35.214 69.3042 33.1666 68.2328 30.9089C67.2914 29.1612 66.7343 27.2312 66.5992 25.2489H66.5671Z" fill="white"/>
<defs>
<linearGradient id="paint0_linear" x1="87.6634" y1="2.00383" x2="92.4783" y2="212.634" gradientUnits="userSpaceOnUse">
<stop stop-color="#03A9F4"/>
<stop offset="1" stop-color="#5ECDFF"/>
</linearGradient>
<linearGradient id="paint1_linear" x1="10723" y1="20371.9" x2="15956.6" y2="20371.9" gradientUnits="userSpaceOnUse">
<stop stop-color="#FFDDCC"/>
<stop offset="1" stop-color="#FFBC97"/>
</linearGradient>
<linearGradient id="paint2_linear" x1="4416.42" y1="13023.2" x2="5902.05" y2="13023.2" gradientUnits="userSpaceOnUse">
<stop stop-color="#FFDDCC"/>
<stop offset="1" stop-color="#FFBC97"/>
</linearGradient>
<linearGradient id="paint3_linear" x1="3157.05" y1="25125.6" x2="4102.98" y2="25125.6" gradientUnits="userSpaceOnUse">
<stop stop-color="#FFDDCC"/>
<stop offset="1" stop-color="#FFBC97"/>
</linearGradient>
</defs>
</svg>
