<svg width="19" height="20" viewBox="0 0 19 20" fill="none" xmlns="http://www.w3.org/2000/svg">
<path fill-rule="evenodd" clip-rule="evenodd" d="M16.2705 17.624C11.9036 17.4945 8.52675 16.1158 6.21103 13.5643C2.84711 9.85854 2.58156 4.56477 2.61816 2.51953L6.37069 2.70732L6.82956 5.82968L5.61591 6.36166C5.25401 6.52073 5.0389 6.89582 5.08414 7.28753C5.3277 9.38547 7.03476 13.6253 11.7601 14.6569C12.1416 14.7362 12.5392 14.5654 12.7337 14.2235L13.3913 13.0692L16.4598 13.8424L16.2705 17.624ZM17.615 12.2794L13.168 11.1575C12.7732 11.0567 12.3654 11.2333 12.1658 11.5849L11.5113 12.7331C8.35277 11.743 7.31306 8.97927 6.99707 7.71687L8.18035 7.19776C8.55142 7.03555 8.76819 6.64525 8.70898 6.24475L8.04228 1.7143C7.98064 1.29029 7.62743 0.969506 7.19801 0.948016L1.80774 0.678268C1.32981 0.654351 0.916741 1.00784 0.867746 1.48298C0.834379 1.80779 0.103731 9.49722 4.86952 14.759C7.4513 17.6089 11.1235 19.167 15.7996 19.401C16.2344 19.4228 16.677 19.4332 17.1282 19.4324C17.6065 19.4312 18 19.056 18.0239 18.5787L18.2932 13.1957C18.3147 12.7677 18.0303 12.3847 17.615 12.2794Z" fill="#84C9EF"/>
</svg>
