<svg width="26" height="21" viewBox="0 0 26 21" fill="none" xmlns="http://www.w3.org/2000/svg">
<path fill-rule="evenodd" clip-rule="evenodd" d="M19 0C19.552 0 20 0.448 20 1V10C20 10.265 19.895 10.52 19.707 10.707L10.707 19.707C10.512 19.902 10.256 20 10 20C9.74401 20 9.48801 19.902 9.29301 19.707L0.293006 10.707C-0.0979941 10.316 -0.0979941 9.684 0.293006 9.293L9.29301 0.293C9.48001 0.106 9.73501 0 10 0H19ZM10 17.586L11.586 16L4.00001 8.414L2.41401 10L10 17.586ZM18 9.586V2H10.414L5.41401 7L13 14.586L18 9.586ZM15 6.0001C14.448 6.0001 14 5.5521 14 5.0001C14 4.4481 14.448 4.0001 15 4.0001C15.552 4.0001 16 4.4481 16 5.0001C16 5.5521 15.552 6.0001 15 6.0001Z" fill="#0171BF"/>
<circle cx="19.5" cy="14.5" r="6.5" fill="white"/>
<path fill-rule="evenodd" clip-rule="evenodd" d="M22.875 13.375H20.625V11.125C20.625 10.504 20.1221 10 19.5 10C18.8779 10 18.375 10.504 18.375 11.125V13.375H16.125C15.5029 13.375 15 13.879 15 14.5C15 15.121 15.5029 15.625 16.125 15.625H18.375V17.875C18.375 18.496 18.8779 19 19.5 19C20.1221 19 20.625 18.496 20.625 17.875V15.625H22.875C23.4971 15.625 24 15.121 24 14.5C24 13.879 23.4971 13.375 22.875 13.375Z" fill="#0072C0"/>
</svg>
