<svg width="4" height="16" viewBox="0 0 4 16" fill="none" xmlns="http://www.w3.org/2000/svg">
<path fill-rule="evenodd" clip-rule="evenodd" d="M2 4C0.895999 4 -9.53674e-07 3.104 -9.53674e-07 2C-9.53674e-07 0.896 0.895999 0 2 0C3.104 0 4 0.896 4 2C4 3.104 3.104 4 2 4ZM2 9.99996C0.895999 9.99996 -9.53674e-07 9.10396 -9.53674e-07 7.99996C-9.53674e-07 6.89596 0.895999 5.99996 2 5.99996C3.104 5.99996 4 6.89596 4 7.99996C4 9.10396 3.104 9.99996 2 9.99996ZM2 15.9999C0.895999 15.9999 -9.53674e-07 15.1039 -9.53674e-07 13.9999C-9.53674e-07 12.8959 0.895999 11.9999 2 11.9999C3.104 11.9999 4 12.8959 4 13.9999C4 15.1039 3.104 15.9999 2 15.9999Z" fill="#0171BF"/>
</svg>
