<svg width="113" height="32" viewBox="0 0 113 32" fill="none" xmlns="http://www.w3.org/2000/svg">
<path d="M59.1997 24.81H66.8197V30H52.2097V25.86L59.5897 14.19H52.3597V9H66.5797V13.14L59.1997 24.81ZM80.1095 9H85.4495V30H81.3095L74.4995 19.14V30H69.1295V9H73.2995L80.1095 19.86V9ZM95.5677 30.45C93.2077 30.45 91.2877 29.86 89.8077 28.68C88.3277 27.48 87.5877 25.68 87.5877 23.28H92.9577C92.9577 24.66 93.8377 25.35 95.5977 25.35C97.0777 25.35 97.8177 24.87 97.8177 23.91C97.8177 23.43 97.5477 23.05 97.0077 22.77C96.4877 22.49 95.6577 22.17 94.5177 21.81C93.5977 21.53 92.8177 21.25 92.1777 20.97C91.5577 20.67 90.8777 20.26 90.1377 19.74C89.3977 19.22 88.8277 18.56 88.4277 17.76C88.0477 16.96 87.8577 16.04 87.8577 15C87.8577 12.94 88.5477 11.35 89.9277 10.23C91.3277 9.11 93.0577 8.55 95.1177 8.55C97.2577 8.55 99.0377 9.14 100.458 10.32C101.878 11.5 102.588 13.25 102.588 15.57H97.2477C97.2477 14.29 96.5377 13.65 95.1177 13.65C94.4977 13.65 94.0277 13.78 93.7077 14.04C93.3877 14.28 93.2277 14.6 93.2277 15C93.2277 15.28 93.2977 15.53 93.4377 15.75C93.5977 15.97 93.8577 16.18 94.2177 16.38C94.5777 16.56 94.8977 16.71 95.1777 16.83C95.4777 16.93 95.9277 17.08 96.5277 17.28C97.2477 17.5 97.8577 17.71 98.3577 17.91C98.8577 18.11 99.4377 18.41 100.098 18.81C100.758 19.19 101.288 19.6 101.688 20.04C102.088 20.48 102.428 21.04 102.708 21.72C103.008 22.4 103.158 23.16 103.158 24C103.158 26.06 102.448 27.65 101.028 28.77C99.6077 29.89 97.7877 30.45 95.5677 30.45Z" fill="#0070BC" fill-opacity="0.62"/>
<g opacity="0.54">
<path d="M36 8.21323V29.6602C36 30.494 35.2275 31.1611 34.2618 31.1611L1.7382 31.1611C0.772532 31.1611 0 30.494 0 29.6602L0 8.21323C0 7.37937 0.772532 6.71228 1.7382 6.71228L34.2618 6.71228C35.2275 6.67892 36 7.37937 36 8.21323Z" fill="#B4E1FA" fill-opacity="0.67"/>
<path d="M34.2618 7.21228H34.2704L34.2791 7.21198C35.0094 7.18675 35.5 7.70751 35.5 8.21323V29.6602C35.5 30.1515 35.0227 30.6611 34.2618 30.6611L1.7382 30.6611C0.977286 30.6611 0.5 30.1515 0.5 29.6602L0.5 8.21323C0.5 7.72186 0.977287 7.21228 1.7382 7.21228L34.2618 7.21228Z" stroke="#5C5858" stroke-opacity="0.25"/>
</g>
<path d="M27.4085 16.5268H19.4362C18.891 16.5268 18.4141 15.9692 18.4141 15.24C18.4141 14.5537 18.857 13.9531 19.4362 13.9531H27.4085C27.9536 13.9531 28.4306 14.5108 28.4306 15.24C28.3965 15.9692 27.9536 16.5268 27.4085 16.5268Z" fill="#1A7FC4" fill-opacity="0.65"/>
<path d="M29.6571 20.3862H19.6917C19.0103 20.3862 18.4141 19.8286 18.4141 19.0993C18.4141 18.413 18.9677 17.8125 19.6917 17.8125H29.6571C30.3385 17.8125 30.9347 18.3701 30.9347 19.0993C30.8921 19.8286 30.3385 20.3862 29.6571 20.3862Z" fill="#1A7FC4" fill-opacity="0.65"/>
<path d="M9.65192 11.3823C6.19997 11.3823 3.3916 14.2687 3.3916 17.8166C3.3916 19.6571 4.1476 21.3194 5.35693 22.4932C5.37959 22.5181 5.40368 22.5417 5.43002 22.5632C6.54401 23.6107 8.02655 24.2507 9.65186 24.2507C11.2772 24.2507 12.7597 23.6107 13.8737 22.5632C13.9 22.5417 13.9241 22.518 13.9468 22.4932C15.1562 21.3194 15.9122 19.6571 15.9122 17.8166C15.9122 14.2687 13.1039 11.3823 9.65192 11.3823ZM9.65192 22.8521C8.54079 22.8521 7.51532 22.4694 6.69249 21.8262C7.29056 20.7362 8.4066 20.0546 9.65192 20.0546C10.8973 20.0546 12.0133 20.7362 12.6114 21.8262C11.7885 22.4694 10.7631 22.8521 9.65192 22.8521ZM8.56317 17.5368V17.0822C8.56317 16.4652 9.05161 15.9632 9.65192 15.9632C10.2522 15.9632 10.7407 16.4652 10.7407 17.0822V17.5368C10.7407 18.1538 10.2522 18.6558 9.65192 18.6558C9.05161 18.6558 8.56317 18.1538 8.56317 17.5368ZM13.5946 20.8017C13.0927 20.0367 12.3972 19.4418 11.5897 19.0745C11.9102 18.6488 12.1016 18.1155 12.1016 17.5368V17.0822C12.1016 15.6939 11.0027 14.5645 9.65192 14.5645C8.30112 14.5645 7.20223 15.6939 7.20223 17.0822V17.5368C7.20223 18.1155 7.39365 18.6488 7.71415 19.0745C6.90664 19.4418 6.21113 20.0367 5.70928 20.8017C5.10849 19.9657 4.75254 18.9333 4.75254 17.8166C4.75254 15.04 6.95039 12.7811 9.65192 12.7811C12.3535 12.7811 14.5513 15.04 14.5513 17.8166C14.5513 18.9333 14.1954 19.9657 13.5946 20.8017Z" fill="#1A7FC4" fill-opacity="0.65"/>
<ellipse cx="19.0401" cy="23.6044" rx="0.626032" ry="0.643421" fill="#1A7FC4" fill-opacity="0.65"/>
<ellipse cx="21.544" cy="23.6083" rx="0.626032" ry="0.643421" fill="#1A7FC4" fill-opacity="0.65"/>
<ellipse cx="24.0508" cy="23.6092" rx="0.626032" ry="0.643421" fill="#1A7FC4" fill-opacity="0.65"/>
<ellipse cx="26.5518" cy="23.6083" rx="0.626032" ry="0.643421" fill="#1A7FC4" fill-opacity="0.65"/>
<ellipse cx="29.0586" cy="23.6078" rx="0.626032" ry="0.643421" fill="#1A7FC4" fill-opacity="0.65"/>
<g opacity="0.54">
<path d="M39 3.50229V24.9492C39 25.7831 38.2275 26.4502 37.2618 26.4502L4.7382 26.4502C3.77253 26.4502 3 25.7831 3 24.9492L3 3.50229C3 2.66843 3.77253 2.00134 4.7382 2.00134L37.2618 2.00134C38.2275 1.96799 39 2.66843 39 3.50229Z" fill="#B4E1FA" fill-opacity="0.23"/>
<path d="M37.2618 2.50134H37.2704L37.2791 2.50104C38.0094 2.47582 38.5 2.99657 38.5 3.50229V24.9492C38.5 25.4406 38.0227 25.9502 37.2618 25.9502L4.7382 25.9502C3.97729 25.9502 3.5 25.4406 3.5 24.9492L3.5 3.50229C3.5 3.01092 3.97729 2.50134 4.7382 2.50134L37.2618 2.50134Z" stroke="url(#paint0_linear)" stroke-opacity="0.35"/>
</g>
<defs>
<linearGradient id="paint0_linear" x1="24" y1="-0.999021" x2="22.5" y2="21.501" gradientUnits="userSpaceOnUse">
<stop stop-color="#5C5858"/>
<stop offset="1" stop-color="#5C5858" stop-opacity="0"/>
</linearGradient>
</defs>
</svg>
